<?xml version="1.0" encoding="iso-8859-1"?>
<!-- Generator: Adobe Illustrator 19.0.0, SVG Export Plug-In . SVG Version: 6.00 Build 0)  -->
<svg version="1.1" id="Layer_1" xmlns="http://www.w3.org/2000/svg" xmlns:xlink="http://www.w3.org/1999/xlink" x="0px" y="0px"
	 viewBox="0 0 511.999 511.999" style="enable-background:new 0 0 511.999 511.999;" xml:space="preserve">
<path style="fill:#F4D8AA;" d="M452.426,305.315c-19.474-7.342-34.307-23.692-39.676-43.728
	c-4.335-16.177-2.262-33.174,5.833-47.868c3.907-7.091,3.505-15.775-1.039-22.475c-4.544-6.7-12.45-10.287-20.495-9.28
	c-2.678,0.334-5.407,0.507-8.108,0.507c-17.252,0-33.463-6.71-45.647-18.895c-14.189-14.189-20.892-33.783-18.388-53.756
	c1.006-8.035-2.579-15.951-9.28-20.495s-15.383-4.945-22.473-1.039c-14.524,8.002-31.802,10.139-47.866,5.833
	c-20.039-5.37-36.388-20.201-43.731-39.676c-3.898-10.333-14.987-16.042-25.657-13.215c-40.209,10.649-77.085,31.895-106.64,61.451
	c-92.342,92.341-92.341,242.594,0,334.934c44.724,44.727,104.199,69.362,167.465,69.368c0.007,0,0.014,0,0.022,0
	c63.249,0,122.718-24.635,167.449-69.367c29.553-29.553,50.8-66.427,61.449-106.641C468.469,320.296,462.76,309.212,452.426,305.315
	z"/>
<path style="fill:#ECB45C;" d="M452.426,305.315c-19.474-7.342-34.307-23.692-39.676-43.728
	c-4.335-16.177-2.262-33.174,5.833-47.868c3.907-7.091,3.505-15.775-1.039-22.475c-4.544-6.7-12.45-10.287-20.495-9.28
	c-2.678,0.334-5.407,0.507-8.108,0.507c-17.252,0-33.463-6.71-45.647-18.895c-14.189-14.189-20.892-33.783-18.388-53.756
	c1.006-8.035-2.579-15.951-9.28-20.495s-15.383-4.945-22.473-1.039c-14.524,8.002-31.802,10.139-47.866,5.833
	c-4.219-1.131-8.262-2.704-12.106-4.63v417.446c1.18,0.019,2.358,0.044,3.541,0.044c0.007,0,0.014,0,0.022,0
	c63.249,0,122.718-24.635,167.449-69.367c29.553-29.553,50.8-66.427,61.449-106.641C468.469,320.296,462.76,309.212,452.426,305.315
	z"/>
<g>
	<path style="fill:#B6731B;" d="M490.455,261.231c-5.657,0-11.212-2.297-15.216-6.316c-4.005-4.005-6.314-9.545-6.314-15.215
		c0-5.67,2.31-11.21,6.314-15.229c4.005-4.005,9.56-6.301,15.216-6.301c5.668,0,11.223,2.297,15.228,6.301
		c4.005,4.005,6.316,9.56,6.316,15.229c0,5.668-2.311,11.21-6.316,15.215C501.68,258.934,496.125,261.231,490.455,261.231z"/>
	<path style="fill:#B6731B;" d="M257.023,48.08c-5.668,0-11.21-2.297-15.228-6.303c-4.005-4.003-6.303-9.559-6.303-15.228
		c0-5.67,2.298-11.212,6.303-15.215c4.005-4.006,9.56-6.316,15.228-6.316c5.67,0,11.225,2.309,15.229,6.316
		c4.005,4.003,6.301,9.558,6.301,15.215c0,5.668-2.297,11.225-6.301,15.228C268.233,45.783,262.693,48.08,257.023,48.08z"/>
	<path style="fill:#B6731B;" d="M388.961,139.426c-5.655,0-11.21-2.298-15.216-6.301c-4.005-4.005-6.314-9.559-6.314-15.229
		c0-5.655,2.309-11.21,6.314-15.216c4.005-4.003,9.545-6.3,15.216-6.3c5.684,0,11.223,2.297,15.228,6.3
		c4.005,4.006,6.316,9.559,6.316,15.216c0,5.67-2.311,11.225-6.316,15.229C400.186,137.128,394.631,139.426,388.961,139.426z"/>
	<path style="fill:#B6731B;" d="M276.185,309.631c-5.67,0-11.212-2.298-15.229-6.301c-4.005-4.02-6.301-9.56-6.301-15.229
		c0-5.67,2.297-11.223,6.301-15.229c4.019-4.003,9.56-6.301,15.229-6.301s11.21,2.298,15.229,6.301
		c4.003,4.006,6.301,9.56,6.301,15.229c0,5.67-2.298,11.21-6.301,15.229C287.395,307.333,281.855,309.631,276.185,309.631z"/>
	<path style="fill:#B6731B;" d="M218.771,223.509c-5.67,0-11.225-2.298-15.229-6.314c-4.005-4.006-6.301-9.545-6.301-15.216
		c0-5.67,2.297-11.223,6.301-15.229c4.005-4.003,9.56-6.301,15.229-6.301s11.21,2.297,15.229,6.301
		c4.003,4.006,6.301,9.56,6.301,15.229s-2.298,11.21-6.301,15.216C229.981,221.211,224.44,223.509,218.771,223.509z"/>
	<path style="fill:#B6731B;" d="M118.295,266.57c-5.67,0-11.212-2.298-15.229-6.301c-4.005-4.02-6.301-9.56-6.301-15.229
		s2.297-11.223,6.301-15.229c4.019-4.003,9.559-6.301,15.229-6.301c5.67,0,11.225,2.298,15.229,6.301
		c4.003,4.006,6.301,9.56,6.301,15.229s-2.298,11.21-6.301,15.229C129.52,264.272,123.965,266.57,118.295,266.57z"/>
	<path style="fill:#B6731B;" d="M276.185,410.106c-5.67,0-11.212-2.298-15.229-6.301c-4.005-4.02-6.301-9.56-6.301-15.229
		s2.297-11.223,6.301-15.229c4.005-4.003,9.56-6.301,15.229-6.301s11.225,2.297,15.229,6.301c4.003,4.006,6.301,9.559,6.301,15.229
		s-2.298,11.21-6.301,15.229C287.395,407.808,281.855,410.106,276.185,410.106z"/>
	<path style="fill:#B6731B;" d="M175.71,367.045c-5.67,0-11.212-2.298-15.229-6.301c-4.005-4.02-6.301-9.56-6.301-15.229
		c0-5.67,2.297-11.223,6.301-15.229c4.019-4.003,9.559-6.301,15.229-6.301s11.21,2.298,15.229,6.301
		c4.003,4.006,6.301,9.56,6.301,15.229c0,5.67-2.298,11.21-6.301,15.229C186.934,364.747,181.379,367.045,175.71,367.045z"/>
</g>
<g>
</g>
<g>
</g>
<g>
</g>
<g>
</g>
<g>
</g>
<g>
</g>
<g>
</g>
<g>
</g>
<g>
</g>
<g>
</g>
<g>
</g>
<g>
</g>
<g>
</g>
<g>
</g>
<g>
</g>
</svg>
